<?xml version="1.0" encoding="utf-8"?>
<!-- Generator: Adobe Illustrator 16.0.0, SVG Export Plug-In . SVG Version: 6.00 Build 0)  -->
<!DOCTYPE svg PUBLIC "-//W3C//DTD SVG 1.1//EN" "http://www.w3.org/Graphics/SVG/1.1/DTD/svg11.dtd">
<svg version="1.1" id="圖層_1" xmlns="http://www.w3.org/2000/svg" xmlns:xlink="http://www.w3.org/1999/xlink" x="0px" y="0px"
	 width="834.333px" height="76.906px" viewBox="0 0 834.333 76.906" enable-background="new 0 0 834.333 76.906"
	 xml:space="preserve">
<g>
	<path fill="#219D36" d="M586.979-127.167c0,0,39.333-47.83,52-46.022s164,44.295,174,53.191"/>
	<path fill="#219D36" d="M118.591-129.74c4.33-5.119,112.242-31.954,166.061-18.831c39.125,9.54,52.515,27.854,134.848,12.567
		c8.686-1.612,36.778-10.449,49.583-9.004c14.583,1.646,49.25,18.363,49.25,18.363"/>
	<polygon fill="#219D36" points="728.521,-134.622 718.12,-152.638 722.767,-152.638 716.338,-163.771 720.388,-163.771 
		707.718,-185.717 695.048,-163.771 699.098,-163.771 692.67,-152.638 697.316,-152.638 686.914,-134.622 	"/>
	<ellipse fill="#8FC31F" cx="112.045" cy="-161.537" rx="19.976" ry="38.888"/>
	<ellipse fill="#72B62A" cx="60.641" cy="-146.618" rx="16.514" ry="34.025"/>
	<ellipse fill="#52A931" cx="90.207" cy="-148.178" rx="13.051" ry="29.166"/>
	<ellipse fill="#219D36" cx="74.252" cy="-142.235" rx="9.589" ry="24.305"/>
	<ellipse fill="#00913A" cx="105.919" cy="-139.512" rx="6.126" ry="19.444"/>
	<path fill="#8FC31F" d="M439.278-140.576c-333.701,0-425.564,10.008-425.564,32.546h851.128
		C864.842-148.329,674.308-140.576,439.278-140.576z"/>
	<polygon fill="#8FC31F" points="775.015,-127.178 758.95,-155.002 766.126,-155.002 756.198,-172.197 762.454,-172.197 
		742.886,-206.089 723.318,-172.197 729.573,-172.197 719.646,-155.002 726.823,-155.002 710.758,-127.178 	"/>
	<polygon fill="#72B62A" points="714.221,-131.813 700.044,-156.369 706.377,-156.369 697.616,-171.544 703.136,-171.544 
		685.867,-201.453 668.6,-171.544 674.119,-171.544 665.358,-156.369 671.691,-156.369 657.515,-131.813 	"/>
	<polygon fill="#52A931" points="752.033,-128.515 739.743,-149.801 745.233,-149.801 737.639,-162.954 742.424,-162.954 
		727.454,-188.882 712.486,-162.954 717.271,-162.954 709.676,-149.801 715.167,-149.801 702.876,-128.515 	"/>
	<polygon fill="#00913A" points="678.646,-130.273 670.131,-145.02 673.935,-145.02 668.672,-154.134 671.987,-154.134 
		661.616,-172.097 651.246,-154.134 654.562,-154.134 649.3,-145.02 653.103,-145.02 644.589,-130.273 	"/>
	<path fill="#219D36" d="M152.591-159.632"/>
</g>
<path fill="#219D36" d="M563.251,70.34c0,0,39.333-42.629,52-41.018c12.667,1.61,164,39.479,174,47.407"/>
<path fill="#219D36" d="M94.863,68.047c4.33-4.563,112.242-28.479,166.061-16.783c39.125,8.502,52.515,24.824,134.848,11.2
	c8.687-1.437,36.778-9.313,49.583-8.024c14.583,1.468,49.25,16.366,49.25,16.366"/>
<polygon fill="#219D36" points="761.492,63.696 751.092,47.639 755.738,47.639 749.31,37.716 753.359,37.716 740.689,18.157 
	728.02,37.716 732.069,37.716 725.642,47.639 730.288,47.639 719.886,63.696 "/>
<ellipse fill="#8FC31F" cx="88.318" cy="39.707" rx="19.976" ry="34.659"/>
<ellipse fill="#72B62A" cx="36.914" cy="53.004" rx="16.514" ry="30.326"/>
<ellipse fill="#52A931" cx="66.479" cy="51.614" rx="13.051" ry="25.994"/>
<ellipse fill="#219D36" cx="50.524" cy="56.91" rx="9.589" ry="21.662"/>
<ellipse fill="#00913A" cx="82.192" cy="59.338" rx="6.126" ry="17.33"/>
<path fill="#8FC31F" d="M415.551,58.389c-333.701,0-425.564,8.92-425.564,29.008h851.128
	C841.114,51.479,650.58,58.389,415.551,58.389z"/>
<polygon fill="#8FC31F" points="807.986,70.331 791.922,45.532 799.098,45.532 789.17,30.206 795.426,30.206 775.857,0 
	756.29,30.206 762.545,30.206 752.617,45.532 759.795,45.532 743.729,70.331 "/>
<polygon fill="#72B62A" points="747.192,66.199 733.016,44.313 739.349,44.313 730.588,30.788 736.107,30.788 718.839,4.132 
	701.571,30.788 707.091,30.788 698.33,44.313 704.663,44.313 690.486,66.199 "/>
<polygon fill="#52A931" points="785.005,69.14 772.715,50.168 778.205,50.168 770.61,38.444 775.396,38.444 760.426,15.336 
	745.458,38.444 750.242,38.444 742.647,50.168 748.139,50.168 735.848,69.14 "/>
<polygon fill="#00913A" points="711.617,67.571 703.103,54.429 706.906,54.429 701.644,46.306 704.959,46.306 694.588,30.296 
	684.218,46.306 687.533,46.306 682.271,54.429 686.074,54.429 677.561,67.571 "/>
<path fill="#219D36" d="M128.863,41.405"/>
</svg>
