<svg width="584" height="660" xmlns="http://www.w3.org/2000/svg" class="mt-0 pt-0">

 <g>
  <title>background</title>
  <rect fill="none" id="canvas_background" height="662" width="586" y="-1" x="-1"/>
 </g>
 <g>
  <title>Layer 1</title>
  <path id="svg_2" d="m437.883,277.663c-4.441,0 -8.041,3.602 -8.041,8.041l0,74.231c0,7.609 -6.168,13.777 -13.773,13.777l-3.393,0c-7.611,0 -13.781,6.176 -13.781,13.779l0,54.995c0,5.834 -4.732,10.564 -10.564,10.564l-2.604,0c-5.84,0 -10.564,4.727 -10.564,10.566l0,44.488c0,11.334 -9.201,20.539 -20.535,20.539l-12.078,0c-11.334,0 -20.529,9.195 -20.529,20.527l0,89.684c0,11.209 -8.98,20.318 -20.145,20.539c-11.516,0.213 -20.928,-9.563 -20.928,-21.072l0,-39.127c0,-11.338 -9.207,-20.533 -20.539,-20.533l-10.729,0c-11.337,0 -20.536,-9.199 -20.536,-20.537l0,-5.16c0,0 -0.045,-6.531 0,-8.041c0.104,-3.805 -3.08,-6.891 -6.891,-6.891l-5.699,0c-10.422,0 -18.888,-8.445 -18.888,-18.887l0,-50.158c0,-3.816 -3.08,-6.896 -6.886,-6.896l-1.123,0c-8.24,0 -14.914,-6.678 -14.914,-14.908l0,-4.404l0,-0.607c0,-3.814 3.085,-6.895 6.892,-6.895l1.011,0c3.805,0 6.89,-3.078 6.89,-6.885l0,-74.284c0,-11.119 9.012,-20.123 20.126,-20.123l0.658,0c3.123,0 5.666,-2.536 5.666,-5.665l0,-22.813c0,-9.906 7.983,-17.954 17.89,-18.053l0,0c9.905,-0.087 17.89,-8.148 17.89,-18.051l0,-43.457c0,-15.47 12.541,-28.02 28.021,-28.02l1.086,0c15.469,0 28.016,-12.544 28.016,-28.02l0,-26.45c0,-2.873 2.336,-5.197 5.199,-5.197l1.49,0c10.27,0 18.594,-8.33 18.594,-18.592l0,-1.574c0,-10.271 8.33,-18.592 18.594,-18.592l29.451,0.032c10.271,0 18.598,-8.332 18.598,-18.592l0,-1.192c0,-6.8 5.572,-12.304 12.4,-12.172c6.703,0.119 11.945,5.87 11.945,12.574l0,0.787c0,5.956 4.822,10.782 10.775,10.782l17.035,0c8.639,0 15.631,6.998 15.631,15.632l0.123,3.613c0,1.996 1.617,3.61 3.609,3.61l0.305,0c5.715,0 10.361,4.634 10.361,10.362c0,5.718 -4.631,10.358 -10.361,10.358l-0.305,0c-8.635,0 -15.631,6.998 -15.631,15.635l0.064,36.827c0,1.998 1.617,3.613 3.613,3.613l0.236,0c4.557,0 8.254,3.698 8.254,8.257c0,4.56 -3.697,8.255 -8.254,8.255l-0.236,0c-6.889,0 -12.475,5.589 -12.475,12.479l0,49.281c0,4.44 -3.604,8.04 -8.041,8.04l-2.633,0.034" fill="#22858A"/>
  <path id="svg_4" d="m189.566,379.531l21.352,0c2.625,0 4.752,-2.123 4.752,-4.748l0,0.006c0,-2.625 2.126,-4.75 4.757,-4.75l16.421,0c3.172,0 5.742,-2.578 5.742,-5.742l0,-0.045c0,-3.166 2.569,-5.734 5.737,-5.734c3.172,0 5.742,2.572 5.742,5.734l0,0.045c0,3.17 2.57,5.742 5.736,5.742l17.848,0.031c3.949,0 7.145,-3.201 7.145,-7.148c0,-3.953 -3.201,-7.148 -7.145,-7.148c-3.951,0 -7.148,-3.197 -7.148,-7.146l0,-15.718c0,-3.954 -3.203,-7.151 -7.148,-7.151l-47.381,0l0.033,2.537c0,3.13 -2.539,5.665 -5.666,5.665l-0.663,0c-11.118,0 -20.121,9.02 -20.121,20.131l0,25.447l0.008,0l-0.001,-0.008l0,0z" fill="#22858A"/>
  <path id="svg_5" d="m236.856,370.039c3.17,0 5.736,-2.574 5.736,-5.734l0,-0.045c0,-3.172 2.577,-5.744 5.746,-5.744c3.167,0 5.737,2.576 5.737,5.744l0,0.045c0,3.162 2.568,5.734 5.734,5.734l27.738,0c9.607,0 17.41,7.787 17.41,17.408c0,9.613 -7.787,17.415 -17.41,17.415l-2.635,0c-5.447,0 -9.863,4.416 -9.863,9.863l0,9.607c0,5.443 -4.416,9.861 -9.859,9.861c-5.445,0 -9.863,-4.418 -9.863,-9.861l0,-12.947c0,-5.441 -4.416,-9.858 -9.861,-9.858l-22.587,0c-5.448,0 -9.86,4.417 -9.86,9.858l0,-0.027c0,5.441 -4.423,9.865 -9.865,9.865l-13.581,0l0,-41.687l21.348,0c2.625,0 4.754,-2.121 4.754,-4.75l0,0.01c0,-2.625 2.123,-4.758 4.755,-4.758l16.422,0l0,0l0.004,0l0,0.001z" fill="#22858A"/>
  <path id="svg_6" d="m221.908,392.877l-1.703,0c-2.504,0 -4.535,-2.033 -4.535,-4.537l0,0c0,-2.51 2.031,-4.537 4.535,-4.537l1.703,0c2.507,0 4.537,2.027 4.537,4.537l0,0c0,2.504 -2.03,4.537 -4.537,4.537z" fill="#22858A"/>
  <path id="svg_7" d="m269.74,314.785c0,-5.302 4.305,-9.607 9.609,-9.607s9.609,-4.31 9.609,-9.611c0,-5.307 4.309,-9.609 9.611,-9.609l12.615,0c5.307,0 9.609,-4.307 9.609,-9.61c0,-5.306 4.309,-9.613 9.613,-9.613l27.197,0c5.303,0 9.605,4.309 9.605,9.613l0,93.295c0,4.277 -3.461,7.73 -7.736,7.73l-0.285,0.045c-4.277,0 -7.73,3.465 -7.73,7.734c0,4.271 -3.465,7.732 -7.74,7.732l-29.52,0.119c-5.51,0 -9.967,-4.465 -9.967,-9.969l-0.064,-0.379c0,-5.514 -4.471,-9.975 -9.973,-9.975c-5.512,0 -9.965,-4.463 -9.965,-9.965l0,0.227c0,-3.951 -3.205,-7.15 -7.15,-7.15c-3.953,0 -7.148,-3.195 -7.148,-7.148l-0.19,-33.859z" fill="#22858A"/>
  <path id="svg_8" d="m386.533,237.748c0,5.306 -4.303,9.61 -9.607,9.61l0,0.057c-5.307,0 -9.607,4.305 -9.607,9.61c0,5.307 -4.309,9.611 -9.609,9.611l-27.363,0c-5.307,0 -9.609,4.305 -9.609,9.608c0,5.306 -4.307,9.609 -9.609,9.609l-12.619,0c-5.307,0 -9.607,4.309 -9.607,9.613c0,5.306 -4.307,9.611 -9.611,9.611l-0.164,-0.01c-5.283,0 -9.557,-4.288 -9.557,-9.561l0,-14.456l0,-4.536c0,-4.829 -3.906,-8.732 -8.736,-8.732l-9.061,0l0.047,-43.556l22.586,0c3.389,0 6.133,2.747 6.133,6.128l0,0.521c0,6.445 5.23,11.675 11.67,11.675l44.576,0c10.109,0 18.314,-8.199 18.314,-18.311l0,-0.827c0,-5.305 4.303,-9.612 9.605,-9.612l5.449,0c3.047,0 5.512,2.474 5.512,5.513l-0.129,3.496c0,3.044 2.473,5.51 5.512,5.51l0,0.1c3.047,0 5.51,2.471 5.51,5.509l0,3.82l-0.026,0l0,0z" fill="#22858A"/>
  <path id="svg_9" d="m269.74,320.323c0,2.991 -2.42,5.405 -5.412,5.405l-48.258,0l0,-20.218c0,-9.906 7.987,-17.954 17.892,-18.053l0,0c9.907,-0.087 17.892,-8.15 17.892,-18.051l0,-1.325l8.99,0c4.832,0 8.73,3.904 8.73,8.733l0.166,43.509z" fill="#22858A"/>
  <path id="svg_10" d="m398.824,416.905c-4.01,0 -7.277,3.25 -7.277,7.273l-0.043,0.271c0,4.012 -3.252,7.281 -7.277,7.281c-4.01,0 -7.279,3.246 -7.279,7.271l0,0.58c0,2.938 -2.385,5.324 -5.326,5.324s-5.328,-2.387 -5.328,-5.324l0,-0.58c0,-4.01 -3.248,-7.271 -7.279,-7.271c-4.01,0 -7.273,-3.258 -7.273,-7.281l-0.045,-0.271c0,-4.01 -3.254,-7.273 -7.279,-7.273l-0.662,0c-6.633,0 -12.018,-5.387 -12.018,-12.02c0,-6.642 5.385,-12.024 12.018,-12.024l0.252,0c4.273,0 7.732,-3.461 7.732,-7.73c0,-4.273 3.459,-7.734 7.729,-7.734l0.293,-0.045c4.277,0 7.736,-3.463 7.736,-7.732l0,-112.589l0.086,0c0,-5.307 4.303,-9.611 9.607,-9.611l0,-0.056c5.305,0 9.605,-4.305 9.605,-9.609l0,-0.412c0,-3.04 2.467,-5.511 5.52,-5.511l55.436,0l0,37.784c0,4.436 -3.602,8.041 -8.043,8.041l-2.633,0.032l0.658,-0.032c-4.438,0 -8.035,3.6 -8.035,8.039l0,74.232c0,7.604 -6.172,13.781 -13.781,13.781l-3.395,0c-7.604,0 -13.779,6.172 -13.779,13.783l0,29.419l0.084,0l0,-0.006l-0.004,0z" fill="#22858A"/>
  <path id="svg_11" d="m321.76,600.266l-11.459,0c-10.807,0 -19.559,-8.752 -19.559,-19.559l0,-44.262c0,-4.068 3.301,-7.367 7.369,-7.367l0.277,-0.047c4.068,0 7.369,-3.299 7.369,-7.365c0,-4.068 3.297,-7.369 7.359,-7.369l0.578,0c2.973,0 5.391,-2.406 5.391,-5.387c0,-2.984 -2.41,-5.393 -5.391,-5.393l-0.578,0c-4.063,0 -7.359,-3.301 -7.359,-7.369l0.291,-41.229c0,-6.916 5.598,-12.521 12.521,-12.521c6.91,0 12.518,-5.6 12.518,-12.521l0.082,-0.475c0,-6.914 5.594,-12.521 12.521,-12.521l0.363,0l0.664,0c4.014,0 7.277,3.25 7.277,7.273l0.045,0.271c0,4.01 3.254,7.281 7.277,7.281c4.018,0 7.275,3.248 7.275,7.273l0,0.578c0,2.939 2.391,5.324 5.334,5.324c2.936,0 5.324,-2.385 5.324,-5.324l0,-0.578c0,-4.014 3.256,-7.273 7.277,-7.273c4.014,0 7.275,-3.256 7.275,-7.281l0.045,-0.271c0,-4.01 2.82,-7.273 6.834,-7.273l0,0l0,25.564c0,5.84 -4.734,10.563 -10.566,10.563l-2.598,0c-5.842,0 -10.572,4.74 -10.572,10.564l0,44.494c0,11.334 -9.193,20.531 -20.531,20.531l-12.074,0c-11.336,0 -20.529,9.205 -20.529,20.539l0,51.117l-0.055,0l0,0.012l0.005,0l0,0.001z" fill="#22858A"/>
  <path id="svg_12" d="m473.086,114.577l-0.299,0c-2,0 -3.615,-1.614 -3.615,-3.609l-0.119,-3.613c0,-8.636 -6.996,-15.633 -15.635,-15.633l-17.014,0c-5.949,0 -10.779,-4.83 -10.779,-10.781l0,-0.79c0,-6.706 -5.238,-12.454 -11.943,-12.573c-6.822,-0.131 -12.398,5.373 -12.398,12.172l0,1.192c0,10.273 -8.334,18.593 -18.594,18.593l-3.666,0l0,6.01c0,3.146 2.547,5.687 5.684,5.687c3.863,0 6.988,3.125 6.988,6.988s-3.125,6.986 -6.988,6.986l0,0.046c-3.146,0 -5.684,2.551 -5.684,5.682l0,15.396c0,3.146 2.547,5.683 5.684,5.683l5.076,0c3.148,0 5.688,2.552 5.688,5.688l0.049,1.465l0,20.944c0,3.139 2.529,5.678 5.67,5.678c3.135,0 5.676,-2.539 5.676,-5.678c0,-7.134 5.799,-12.93 12.932,-12.93l0.234,0c7.143,0 12.93,-5.792 12.93,-12.934l0,-0.446c0,-7.136 5.793,-12.933 12.934,-12.933l0.236,0c7.135,0 12.93,-5.789 12.93,-12.933l0,-0.445c0,-7.137 5.795,-12.933 12.93,-12.933l1.093,0.021z" fill="#22858A"/>
  <path id="svg_13" d="m397.537,97.425c0,-3.37 2.732,-6.104 6.107,-6.104l9.49,0c1.783,0 3.225,1.439 3.225,3.221l0,9.837c0,0.889 0.721,1.616 1.619,1.616l0.732,0c1.777,0 3.223,1.44 3.223,3.221l0,0.899c0,1.778 1.443,3.222 3.227,3.222l0.74,0c1.451,0 2.629,1.174 2.629,2.628l0,3.525c0,1.45 -1.178,2.625 -2.629,2.625l-0.74,0c-1.787,0 -3.227,1.441 -3.227,3.222l0,0.944c0,1.778 -1.443,3.222 -3.223,3.222l-1.164,-0.107c-4.404,0 -7.982,-3.57 -7.982,-7.984l0.076,-0.834c0,-1.117 -0.898,-2.02 -2.016,-2.02l-0.592,0c-1.123,0 -2.02,-0.904 -2.02,-2.021l0,-8.4c0,-1.778 -1.445,-3.221 -3.227,-3.221l-0.947,0c-1.777,0 -3.215,-1.443 -3.215,-3.223l-0.086,-4.268z" fill="#22858A"/>
  <path id="svg_14" d="m462.553,94.651l-14.496,14.493c-4.057,4.059 -10.631,4.059 -14.688,0l0,0c-4.059,-4.058 -4.059,-10.632 0,-14.688l2.717,-2.714l18.461,0c-0.002,0 4.308,0.139 8.006,2.909z" fill="#22858A"/>
  <path id="svg_15" d="m379.193,99.532l-26.254,-0.032c-10.275,0 -18.596,8.329 -18.596,18.591l0,1.574c0,4.098 -1.334,7.896 -3.584,10.978l-0.066,-0.053c6.979,0 12.631,5.648 12.631,12.629l0,0.435c0,6.977 5.654,12.63 12.625,12.63l0.24,0c6.971,0 12.627,5.653 12.627,12.629l0,0.433c0,6.979 5.648,12.63 12.631,12.63l0.23,0c6.975,0 12.627,5.656 12.627,12.63c0,3.062 2.482,5.544 5.543,5.544c3.059,0 5.543,-2.482 5.543,-5.544l0.135,-4.678c0,-2.286 -1.852,-4.151 -4.146,-4.151c-3.137,0 -5.678,-2.539 -5.678,-5.677l0,-20.928l-0.045,-1.465c0,-3.146 -2.549,-5.688 -5.688,-5.688l-5.078,0c-3.137,0 -5.68,-2.548 -5.68,-5.683l0,-15.395c0,-3.145 2.549,-5.685 5.68,-5.685l0,-0.044c3.863,0 6.988,-3.125 6.988,-6.987c0,-3.861 -3.125,-6.986 -6.988,-6.986c-3.137,0 -5.68,-2.553 -5.68,-5.688l0,-6.021l-0.017,0.002l0,0z" fill="#22858A"/>
  <path id="svg_16" d="m330.416,130.764c-3.381,4.558 -8.816,7.516 -14.934,7.516l-1.486,0c-2.875,0 -5.197,2.335 -5.197,5.197l0,26.45l-0.021,2.493l0,0.262c0,4.219 3.428,7.651 7.648,7.651l0.141,0c4.221,0 7.645,3.426 7.645,7.647l0,0.261c0,4.219 3.434,7.65 7.646,7.65l0.146,0c4.215,0 7.646,3.43 7.646,7.649l-0.293,6.563c0,2.192 1.779,3.983 3.979,3.983l33.967,0c2.191,0 3.98,-1.782 3.98,-3.983c0,-2.204 1.781,-3.981 3.986,-3.981l5.348,0c1.949,0 3.537,-1.584 3.537,-3.536l0,-7.975c0,-6.975 -5.656,-12.629 -12.629,-12.629l-0.234,0c-6.979,0 -12.629,-5.648 -12.629,-12.629l0,-0.434c0,-6.978 -5.648,-12.631 -12.629,-12.631l-0.234,0c-6.975,0 -12.631,-5.652 -12.631,-12.626l0,-0.438c0,-6.975 -5.652,-12.629 -12.621,-12.629l-0.131,0.169z" fill="#22858A"/>
  <path id="svg_17" d="m251.744,224.244l22.588,0c3.383,0 6.129,2.748 6.129,6.129l0,0.521c0,6.445 5.229,11.676 11.672,11.676l44.576,0c10.111,0 18.313,-8.199 18.313,-18.313l0,-0.446c0,-5.348 -4.336,-9.688 -9.688,-9.688l-1.953,-0.039c-2.193,0 -3.982,-1.782 -3.982,-3.983l0.293,-6.563c0,-4.221 -3.428,-7.651 -7.646,-7.651l-0.143,0c-4.221,0 -7.646,-3.428 -7.646,-7.651l0,-0.258c0,-4.218 -3.428,-7.648 -7.65,-7.648l-0.139,0c-4.221,0 -7.648,-3.43 -7.648,-7.651l0,-0.262l0.021,-2.493l-0.021,0c0,15.468 -12.541,28.022 -28.02,28.022l-1.082,0c-14.777,0 -26.877,11.432 -27.951,25.928l-0.023,0.37z" fill="#22858A"/>
  <path id="svg_18" d="m241.317,576.624c2.692,1.305 5.723,2.031 8.911,2.031l10.729,0c11.33,0 20.531,9.199 20.531,20.535l0,39.129c0,11.508 9.416,21.289 20.926,21.064c11.16,-0.207 20.143,-9.318 20.143,-20.535l0,-38.584l-12.143,0c-10.809,0 -19.563,-8.76 -19.563,-19.561l0,-44.258c0,-4.068 3.295,-7.369 7.363,-7.369l0.283,-0.047c4.066,0 7.365,-3.301 7.365,-7.369c0,-4.072 3.297,-7.365 7.365,-7.365l0.574,0c2.975,0 5.389,-2.412 5.389,-5.387c0,-2.986 -2.406,-5.391 -5.389,-5.391l-0.574,0c-4.068,0 -7.365,-3.303 -7.365,-7.369c0,-5.291 -5.188,-4.578 -5.188,-4.578l-39.566,0.211c-3.783,0 -6.863,3.063 -6.863,6.863l0,1.141c0,3.783 -3.07,6.863 -6.871,6.863l-0.729,0c-3.79,0 -6.87,3.074 -6.87,6.871l0,62.313l1.542,0.792z" fill="#22858A"/>
  <path id="svg_19" d="m238.921,575.337c-5.637,-3.668 -9.343,-10.018 -9.343,-17.217l0,-5.164c0,0 -0.047,-6.529 0,-8.045c0.107,-3.813 -3.08,-6.891 -6.887,-6.891l-6.146,0c-10.421,0 -18.888,-8.451 -18.888,-18.889l0,-35.604l38.637,0c8.146,0 14.753,-6.607 14.753,-14.75l0,-12.695c0,-8.145 6.607,-14.752 14.752,-14.752l0.352,0c1.961,0 3.57,-1.596 3.57,-3.563c0,-1.971 -1.598,-3.572 -3.57,-3.572l-0.717,0c5.447,0 9.861,-4.418 9.861,-9.861l0,-9.607c0,-5.447 4.42,-9.863 9.865,-9.863l2.633,0c9.611,0 17.412,-7.794 17.412,-17.415l0,-4.428c0,5.518 4.467,9.975 9.969,9.975l29.52,-0.117l-0.479,0l-0.25,0c-6.635,0 -12.02,5.379 -12.02,12.017c0,6.645 5.387,12.02 12.02,12.02l0.666,0l-0.781,0l-0.373,0c-6.91,0 -12.52,5.598 -12.52,12.521l-0.074,0.477c0,6.914 -5.598,12.521 -12.521,12.521c-6.922,0 -12.521,5.598 -12.521,12.518l-0.291,29.434l0.188,1.994c0,2.875 -2.336,5.211 -5.211,5.211l-39.563,0.24c-3.791,0 -6.871,3.066 -6.871,6.863l0,1.141c0,3.783 -3.064,6.865 -6.863,6.865l-0.733,0c-3.795,0 -6.871,3.072 -6.871,6.871l0,62.313l-0.705,-0.548z" fill="#22858A"/>
  <path id="svg_20" d="m197.681,483.53l38.591,0c8.147,0 14.755,-6.611 14.755,-14.756l0,-12.691c0,-8.152 6.648,-14.756 14.795,-14.756l0.352,0c1.959,0 3.568,-1.594 3.568,-3.566c0,-1.963 -1.594,-3.57 -3.568,-3.57c-5.443,0 -10.947,-4.416 -10.947,-9.855l0,-12.947c0,-5.441 -4.412,-9.864 -9.861,-9.864l-22.586,0c-5.447,0 -9.86,4.423 -9.86,9.864l0,-0.033c0,5.447 -4.417,9.863 -9.863,9.863l-13.507,0l0,7.137c0,3.809 -3.078,6.887 -6.885,6.887l-1.011,0c-3.811,0 -6.89,3.08 -6.89,6.896l0,0.604l0,4.41c0,8.236 6.682,14.904 14.913,14.904l1.121,0c3.807,0 6.886,3.086 6.886,6.896l-0.003,14.577l0,0z" fill="#22858A"/>
  <path id="svg_21" d="m391.945,231.839c-7.135,0 -12.928,-5.793 -12.928,-12.933c0,-7.143 5.793,-12.935 12.928,-12.935l1.529,-0.172c7.139,0 12.939,-5.792 12.939,-12.932l0,-12.746c0,-7.137 5.787,-12.934 12.926,-12.934l0.234,0c7.135,0 12.93,-5.791 12.93,-12.933l0,-0.444c0,-7.137 5.797,-12.934 12.93,-12.934l0.242,0c7.135,0 12.93,-5.792 12.93,-12.932l0,-0.447c0,-7.137 5.793,-12.933 12.932,-12.933l1.061,0.012c5.717,0 10.359,4.63 10.359,10.362c0,5.718 -4.627,10.358 -10.359,10.358l-0.301,0c-8.639,0 -15.633,6.998 -15.633,15.635l0.061,36.827c0,1.998 1.621,3.613 3.619,3.613l0.236,0c4.555,0 8.254,3.698 8.254,8.257c0,4.56 -3.699,8.255 -8.254,8.255l-0.236,0c-6.889,0 -12.477,5.589 -12.477,12.479l0,11.499l-55.92,0l0,-0.025l-0.002,0l0,0.003z" fill="#22858A"/>
  <path id="svg_23" d="m309.035,172.626c0,4.263 3.461,7.726 7.727,7.726c4.268,0 7.729,-3.463 7.729,-7.726l0,-1.832c0,-2.363 1.92,-4.286 4.283,-4.286l0.281,0.086c2.369,0 4.289,-1.92 4.289,-4.284l0,-1.528c0,-2.365 -1.92,-4.285 -4.289,-4.285l-0.281,0.087c-2.363,0 -4.283,-1.924 -4.283,-4.288l0,-0.468c0,-2.364 -1.926,-4.285 -4.289,-4.285l-6.941,0c-2.363,0 -4.289,1.921 -4.289,4.285l0.021,0l0,18.021l0.042,2.777z" fill="#22858A"/>
  <path id="svg_24" d="m32.852,238.79l6.477,0c8.485,0 15.353,6.879 15.353,15.354l0,0c0,8.482 -6.877,15.352 -15.353,15.352l-6.477,0c-8.485,0 -15.352,-6.878 -15.352,-15.352l0,0c0.003,-8.485 6.881,-15.354 15.352,-15.354z" fill="#22858A"/>
  <path id="svg_25" d="m71.484,51.659082l8.039,0c4.849,0 8.774,3.928 8.774,8.775l0,0c0,4.848 -3.926,8.776 -8.774,8.776l-8.039,0c-4.852,0 -8.777,-3.925 -8.777,-8.776l0,0c0,-4.844 3.925,-8.775 8.777,-8.775z" fill="#22858A"/>
  <path id="svg_26" d="m86.25,465.618l0,-4.494c0,-5.883 4.762,-10.645 10.64,-10.645l0,0c5.88,0 10.646,4.762 10.646,10.645l0,4.494c0,5.875 -4.762,10.639 -10.646,10.639l0,0c-5.876,-0.002 -10.64,-4.764 -10.64,-10.639z" fill="#22858A"/>
  <path id="svg_27" d="m407.707,522.852l5.049,0c3.035,0 5.502,2.463 5.502,5.502l0,0c0,3.041 -2.467,5.5 -5.502,5.5l-5.049,0c-3.037,0 -5.494,-2.459 -5.494,-5.5l0,0c0,-3.039 2.461,-5.502 5.494,-5.502z" fill="#22858A"/>
  <path id="svg_28" d="m438.088,610.194l0,6.807c0,4.105 -3.33,7.432 -7.426,7.432l0,0c-4.105,0 -7.432,-3.328 -7.432,-7.432l0,-6.807c0,-4.104 3.334,-7.432 7.432,-7.432l0,0c4.108,0 7.426,3.329 7.426,7.432z" fill="#22858A"/>
  <path id="svg_29" d="m427.486,274.663c-4.441,0 -8.041,3.602 -8.041,8.041l0,74.232c0,7.609 -6.168,13.777 -13.773,13.777l-3.393,0c-7.611,0 -13.781,6.176 -13.781,13.779l0,54.994c0,5.834 -4.732,10.564 -10.564,10.564l-2.604,0c-5.84,0 -10.564,4.727 -10.564,10.566l0,44.488c0,11.334 -9.201,20.539 -20.535,20.539l-12.078,0c-11.334,0 -20.529,9.195 -20.529,20.527l0,89.684c0,11.209 -8.98,20.318 -20.145,20.539c-11.516,0.213 -20.928,-9.563 -20.928,-21.072l0,-39.127c0,-11.338 -9.207,-20.533 -20.539,-20.533l-10.729,0c-11.336,0 -20.535,-9.199 -20.535,-20.537l0,-5.16c0,0 -0.045,-6.531 0,-8.041c0.104,-3.805 -3.08,-6.891 -6.891,-6.891l-5.699,0c-10.422,0 -18.888,-8.445 -18.888,-18.887l0,-50.158c0,-3.816 -3.08,-6.896 -6.886,-6.896l-1.123,0c-8.24,0 -14.914,-6.678 -14.914,-14.908l0,-4.404l0,-0.607c0,-3.814 3.085,-6.895 6.892,-6.895l1.011,0c3.805,0 6.89,-3.078 6.89,-6.885l0,-74.285c0,-11.117 9.012,-20.122 20.126,-20.122l0.658,0c3.123,0 5.666,-2.537 5.666,-5.665l0,-22.813c0,-9.906 7.983,-17.954 17.889,-18.053l0,0c9.905,-0.087 17.89,-8.148 17.89,-18.051l0,-43.457c0,-15.47 12.541,-28.02 28.021,-28.02l1.086,0c15.469,0 28.016,-12.544 28.016,-28.02l0,-26.45c0,-2.873 2.336,-5.197 5.199,-5.197l1.49,0c10.27,0 18.594,-8.33 18.594,-18.592l0,-1.574c0,-10.271 8.33,-18.592 18.594,-18.592l29.451,0.032c10.271,0 18.598,-8.332 18.598,-18.592l0,-1.192c0,-6.8 5.572,-12.304 12.4,-12.172c6.703,0.119 11.945,5.87 11.945,12.574l0,0.787c0,5.956 4.822,10.782 10.775,10.782l17.035,0c8.639,0 15.631,6.998 15.631,15.632l0.123,3.613c0,1.996 1.617,3.61 3.609,3.61l0.305,0c5.715,0 10.361,4.634 10.361,10.362c0,5.718 -4.631,10.358 -10.361,10.358l-0.305,0c-8.635,0 -15.631,6.998 -15.631,15.635l0.064,36.827c0,1.998 1.617,3.613 3.613,3.613l0.236,0c4.557,0 8.254,3.698 8.254,8.257c0,4.56 -3.697,8.255 -8.254,8.255l-0.236,0c-6.889,0 -12.475,5.589 -12.475,12.479l0,49.281c0,4.44 -3.604,8.04 -8.041,8.04l-2.633,0.034" fill="#00C3A0"/>
  <path d="m181.816,376.531l21.352,0c2.625,0 4.752,-2.123 4.752,-4.749l0,0.007c0,-2.626 2.126,-4.75 4.757,-4.75l16.422,0c3.172,0 5.741,-2.578 5.741,-5.742l0,-0.045c0,-3.167 2.569,-5.734 5.737,-5.734c3.172,0 5.743,2.571 5.743,5.734l0,0.045c0,3.169 2.57,5.742 5.736,5.742l17.848,0.03c3.949,0 7.145,-3.201 7.145,-7.148c0,-3.952 -3.201,-7.147 -7.145,-7.147c-3.951,0 -7.148,-3.198 -7.148,-7.147l0,-15.717c0,-3.953 -3.203,-7.15 -7.148,-7.15l-47.381,0l0.033,2.537c0,3.13 -2.539,5.665 -5.666,5.665l-0.663,0c-11.118,0 -20.121,9.02 -20.121,20.131l0,25.446l0.008,0l-0.002,-0.008l0,0z" stroke-miterlimit="10" stroke-linejoin="round" stroke-linecap="round" stroke-width="2.8098" stroke="#48D4BB" fill="#5dc47a" id="雲林縣"/>
  <path d="m229.107,367.038c3.17,0 5.735,-2.573 5.735,-5.734l0,-0.045c0,-3.171 2.577,-5.743 5.746,-5.743c3.167,0 5.738,2.576 5.738,5.743l0,0.045c0,3.163 2.568,5.734 5.734,5.734l27.738,0c9.607,0 17.41,7.787 17.41,17.408c0,9.614 -7.787,17.415 -17.41,17.415l-2.635,0c-5.447,0 -9.863,4.417 -9.863,9.863l0,9.607c0,5.443 -4.416,9.861 -9.859,9.861c-5.445,0 -9.863,-4.418 -9.863,-9.861l0,-12.946c0,-5.442 -4.416,-9.858 -9.862,-9.858l-22.587,0c-5.448,0 -9.86,4.416 -9.86,9.858l0,-0.028c0,5.442 -4.423,9.866 -9.865,9.866l-13.581,0l0,-41.688l21.348,0c2.625,0 4.754,-2.121 4.754,-4.75l0,0.01c0,-2.624 2.123,-4.758 4.755,-4.758l16.423,0l0,0l0.004,0l0,0.001z" stroke-miterlimit="10" stroke-linejoin="round" stroke-linecap="round" stroke-width="2.8098" stroke="#48D4BB" fill="#5dc47a" id="嘉義縣"/>
  <path d="m214.158,389.876l-1.703,0c-2.504,0 -4.535,-2.033 -4.535,-4.536l0,0c0,-2.51 2.031,-4.538 4.535,-4.538l1.703,0c2.507,0 4.537,2.028 4.537,4.538l0,0c0,2.503 -2.03,4.536 -4.537,4.536z" stroke-miterlimit="10" stroke-linejoin="round" stroke-linecap="round" stroke-width="2.8098" stroke="#48D4BB" fill="#5dc47a" id="嘉義市"/>
  <path d="m261.99,311.785c0,-5.302 4.305,-9.607 9.609,-9.607s9.609,-4.31 9.609,-9.611c0,-5.307 4.309,-9.609 9.611,-9.609l12.615,0c5.307,0 9.609,-4.307 9.609,-9.61c0,-5.306 4.309,-9.613 9.613,-9.613l27.197,0c5.303,0 9.605,4.309 9.605,9.613l0,93.296c0,4.277 -3.461,7.73 -7.736,7.73l-0.285,0.044c-4.277,0 -7.73,3.466 -7.73,7.735c0,4.271 -3.465,7.732 -7.74,7.732l-29.52,0.118c-5.51,0 -9.967,-4.465 -9.967,-9.968l-0.064,-0.38c0,-5.513 -4.471,-9.975 -9.973,-9.975c-5.512,0 -9.965,-4.463 -9.965,-9.965l0,0.228c0,-3.951 -3.205,-7.15 -7.15,-7.15c-3.953,0 -7.148,-3.196 -7.148,-7.148l-0.19,-33.86z" stroke-miterlimit="10" stroke-linejoin="round" stroke-linecap="round" stroke-width="2.8098" stroke="#48D4BB" fill="#5dc47a" id="南投縣"/>
  <path d="m378.783,234.748c0,5.306 -4.303,9.61 -9.607,9.61l0,0.057c-5.307,0 -9.607,4.305 -9.607,9.61c0,5.307 -4.309,9.611 -9.609,9.611l-27.363,0c-5.307,0 -9.609,4.305 -9.609,9.608c0,5.306 -4.307,9.609 -9.609,9.609l-12.619,0c-5.307,0 -9.607,4.309 -9.607,9.613c0,5.306 -4.307,9.611 -9.611,9.611l-0.164,-0.01c-5.283,0 -9.557,-4.288 -9.557,-9.561l0,-14.456l0,-4.536c0,-4.829 -3.906,-8.732 -8.736,-8.732l-9.061,0l0.047,-43.556l22.586,0c3.389,0 6.133,2.747 6.133,6.128l0,0.521c0,6.445 5.23,11.675 11.67,11.675l44.576,0c10.109,0 18.314,-8.199 18.314,-18.311l0,-0.827c0,-5.305 4.303,-9.612 9.605,-9.612l5.449,0c3.047,0 5.512,2.474 5.512,5.513l-0.129,3.496c0,3.044 2.473,5.51 5.512,5.51l0,0.1c3.047,0 5.51,2.471 5.51,5.509l0,3.82l-0.026,0l0,0z" stroke-miterlimit="10" stroke-linejoin="round" stroke-linecap="round" stroke-width="2.8098" stroke="#48D4BB" fill="#5dc47a" id="臺中市"/>
  <path d="m261.99,317.322c0,2.991 -2.42,5.405 -5.412,5.405l-48.258,0l0,-20.217c0,-9.906 7.987,-17.954 17.891,-18.053l0,0c9.907,-0.087 17.892,-8.15 17.892,-18.051l0,-1.325l8.99,0c4.832,0 8.73,3.904 8.73,8.733l0.167,43.508z" stroke-miterlimit="10" stroke-linejoin="round" stroke-linecap="round" stroke-width="2.8098" stroke="#48D4BB" fill="#5dc47a" id="彰化縣"/>
  <path d="m465.336,111.577l-0.299,0c-2,0 -3.615,-1.614 -3.615,-3.609l-0.119,-3.613c0,-8.636 -6.996,-15.633 -15.635,-15.633l-17.014,0c-5.949,0 -10.779,-4.83 -10.779,-10.781l0,-0.79c0,-6.706 -5.238,-12.454 -11.943,-12.573c-6.822,-0.131 -12.398,5.373 -12.398,12.172l0,1.192c0,10.273 -8.334,18.593 -18.594,18.593l-3.666,0l0,6.01c0,3.146 2.547,5.687 5.684,5.687c3.863,0 6.988,3.125 6.988,6.988s-3.125,6.986 -6.988,6.986l0,0.046c-3.146,0 -5.684,2.551 -5.684,5.682l0,15.396c0,3.146 2.547,5.683 5.684,5.683l5.076,0c3.148,0 5.688,2.552 5.688,5.688l0.049,1.465l0,20.944c0,3.139 2.529,5.678 5.67,5.678c3.135,0 5.676,-2.539 5.676,-5.678c0,-7.134 5.799,-12.93 12.932,-12.93l0.234,0c7.143,0 12.93,-5.792 12.93,-12.934l0,-0.446c0,-7.136 5.793,-12.933 12.934,-12.933l0.236,0c7.135,0 12.93,-5.789 12.93,-12.933l0,-0.445c0,-7.137 5.795,-12.933 12.93,-12.933l1.093,0.021z" stroke-miterlimit="10" stroke-linejoin="round" stroke-linecap="round" stroke-width="2.8098" stroke="#48D4BB" fill="#5dc47a" id="新北市"/>
  <path d="m384.195,228.839c-7.135,0 -12.928,-5.793 -12.928,-12.933c0,-7.143 5.793,-12.935 12.928,-12.935l1.529,-0.172c7.139,0 12.939,-5.792 12.939,-12.932l0,-12.746c0,-7.137 5.787,-12.934 12.926,-12.934l0.234,0c7.135,0 12.93,-5.791 12.93,-12.933l0,-0.444c0,-7.137 5.797,-12.934 12.93,-12.934l0.242,0c7.135,0 12.93,-5.792 12.93,-12.932l0,-0.447c0,-7.137 5.793,-12.933 12.932,-12.933l1.061,0.012c5.717,0 10.359,4.63 10.359,10.362c0,5.718 -4.627,10.358 -10.359,10.358l-0.301,0c-8.639,0 -15.633,6.998 -15.633,15.635l0.061,36.827c0,1.998 1.621,3.613 3.619,3.613l0.236,0c4.555,0 8.254,3.698 8.254,8.257c0,4.56 -3.699,8.255 -8.254,8.255l-0.236,0c-6.889,0 -12.477,5.589 -12.477,12.479l0,11.499l-55.92,0l0,-0.025l-0.002,0l0,0.003z" stroke-miterlimit="10" stroke-linejoin="round" stroke-linecap="round" stroke-width="2.8098" stroke="#48D4BB" fill="#5dc47a" id="宜蘭縣"/>
  <path d="m391.074,413.905c-4.01,0 -7.277,3.249 -7.277,7.273l-0.043,0.271c0,4.011 -3.252,7.281 -7.277,7.281c-4.01,0 -7.279,3.246 -7.279,7.271l0,0.581c0,2.938 -2.385,5.324 -5.326,5.324s-5.328,-2.388 -5.328,-5.324l0,-0.581c0,-4.009 -3.248,-7.271 -7.279,-7.271c-4.01,0 -7.273,-3.258 -7.273,-7.281l-0.045,-0.271c0,-4.01 -3.254,-7.273 -7.279,-7.273l-0.662,0c-6.633,0 -12.018,-5.388 -12.018,-12.021c0,-6.641 5.385,-12.023 12.018,-12.023l0.252,0c4.273,0 7.732,-3.461 7.732,-7.731c0,-4.273 3.459,-7.733 7.729,-7.733l0.293,-0.046c4.277,0 7.736,-3.462 7.736,-7.731l0,-112.59l0.086,0c0,-5.307 4.303,-9.611 9.607,-9.611l0,-0.056c5.305,0 9.605,-4.305 9.605,-9.609l0,-0.412c0,-3.04 2.467,-5.511 5.52,-5.511l55.434,0l0,37.784c0,4.436 -3.602,8.041 -8.043,8.041l-2.633,0.032l0.658,-0.032c-4.438,0 -8.035,3.6 -8.035,8.039l0,74.231c0,7.604 -6.172,13.781 -13.781,13.781l-3.395,0c-7.604,0 -13.779,6.173 -13.779,13.783l0,29.42l0.084,0l0,-0.006l-0.002,0l0,0.001z" stroke-miterlimit="10" stroke-linejoin="round" stroke-linecap="round" stroke-width="2.8098" stroke="#48D4BB" fill="#5dc47a" id="花蓮縣"/>
  <path d="m314.01,597.265l-11.459,0c-10.807,0 -19.559,-8.752 -19.559,-19.559l0,-44.261c0,-4.068 3.301,-7.368 7.369,-7.368l0.277,-0.046c4.068,0 7.369,-3.3 7.369,-7.366c0,-4.068 3.297,-7.369 7.359,-7.369l0.578,0c2.973,0 5.391,-2.406 5.391,-5.386c0,-2.984 -2.41,-5.394 -5.391,-5.394l-0.578,0c-4.063,0 -7.359,-3.301 -7.359,-7.368l0.291,-41.229c0,-6.916 5.598,-12.521 12.521,-12.521c6.91,0 12.518,-5.6 12.518,-12.521l0.082,-0.476c0,-6.914 5.594,-12.521 12.521,-12.521l0.363,0l0.664,0c4.014,0 7.277,3.25 7.277,7.273l0.045,0.271c0,4.011 3.254,7.282 7.277,7.282c4.018,0 7.275,3.248 7.275,7.272l0,0.578c0,2.939 2.391,5.325 5.334,5.325c2.936,0 5.324,-2.386 5.324,-5.325l0,-0.578c0,-4.013 3.256,-7.272 7.277,-7.272c4.014,0 7.275,-3.257 7.275,-7.282l0.045,-0.271c0,-4.01 2.82,-7.273 6.834,-7.273l0,0l0,25.564c0,5.84 -4.734,10.563 -10.566,10.563l-2.598,0c-5.842,0 -10.572,4.74 -10.572,10.563l0,44.494c0,11.335 -9.193,20.531 -20.531,20.531l-12.074,0c-11.336,0 -20.529,9.206 -20.529,20.539l0,51.118l-0.055,0l0,0.011l0.005,0l0,0.002z" stroke-miterlimit="10" stroke-linejoin="round" stroke-linecap="round" stroke-width="2.8098" stroke="#48D4BB" fill="#5dc47a" id="臺東縣"/>
  <path d="m389.787,94.425c0,-3.37 2.732,-6.104 6.107,-6.104l9.49,0c1.783,0 3.225,1.439 3.225,3.221l0,9.837c0,0.889 0.721,1.616 1.619,1.616l0.732,0c1.777,0 3.223,1.44 3.223,3.221l0,0.899c0,1.778 1.443,3.222 3.227,3.222l0.74,0c1.451,0 2.629,1.174 2.629,2.628l0,3.525c0,1.45 -1.178,2.625 -2.629,2.625l-0.74,0c-1.787,0 -3.227,1.441 -3.227,3.222l0,0.944c0,1.778 -1.443,3.222 -3.223,3.222l-1.164,-0.107c-4.404,0 -7.982,-3.57 -7.982,-7.984l0.076,-0.834c0,-1.117 -0.898,-2.02 -2.016,-2.02l-0.592,0c-1.123,0 -2.02,-0.904 -2.02,-2.021l0,-8.4c0,-1.778 -1.445,-3.221 -3.227,-3.221l-0.947,0c-1.777,0 -3.215,-1.443 -3.215,-3.223l-0.086,-4.268z" stroke-miterlimit="10" stroke-linejoin="round" stroke-linecap="round" stroke-width="2.8098" stroke="#48D4BB" fill="#5dc47a" id="臺北市"/>
  <path d="m454.803,91.65l-14.496,14.493c-4.057,4.059 -10.631,4.059 -14.688,0l0,0c-4.059,-4.058 -4.059,-10.632 0,-14.688l2.717,-2.714l18.461,0c-0.002,0.001 4.308,0.14 8.006,2.909z" stroke-miterlimit="10" stroke-linejoin="round" stroke-linecap="round" stroke-width="2.8098" stroke="#48D4BB" fill="#5dc47a" id="基隆市"/>
  <path d="m371.443,96.532l-26.254,-0.032c-10.275,0 -18.596,8.329 -18.596,18.591l0,1.574c0,4.098 -1.334,7.896 -3.584,10.978l-0.066,-0.053c6.979,0 12.631,5.648 12.631,12.629l0,0.435c0,6.977 5.654,12.63 12.625,12.63l0.24,0c6.971,0 12.627,5.653 12.627,12.629l0,0.433c0,6.979 5.648,12.63 12.631,12.63l0.23,0c6.975,0 12.627,5.656 12.627,12.63c0,3.062 2.482,5.544 5.543,5.544c3.059,0 5.543,-2.482 5.543,-5.544l0.135,-4.678c0,-2.286 -1.852,-4.151 -4.146,-4.151c-3.137,0 -5.678,-2.539 -5.678,-5.677l0,-20.928l-0.045,-1.465c0,-3.146 -2.549,-5.688 -5.688,-5.688l-5.078,0c-3.137,0 -5.68,-2.548 -5.68,-5.683l0,-15.395c0,-3.145 2.549,-5.685 5.68,-5.685l0,-0.044c3.863,0 6.988,-3.125 6.988,-6.987c0,-3.861 -3.125,-6.986 -6.988,-6.986c-3.137,0 -5.68,-2.553 -5.68,-5.688l0,-6.021l-0.017,0.002l0,0z" stroke-miterlimit="10" stroke-linejoin="round" stroke-linecap="round" stroke-width="2.8098" stroke="#48D4BB" fill="#5dc47a" id="桃園市"/>
  <path d="m322.666,127.763c-3.381,4.558 -8.816,7.516 -14.934,7.516l-1.486,0c-2.875,0 -5.197,2.335 -5.197,5.197l0,26.45l-0.021,2.493l0,0.262c0,4.219 3.428,7.651 7.648,7.651l0.141,0c4.221,0 7.645,3.426 7.645,7.647l0,0.261c0,4.219 3.434,7.65 7.646,7.65l0.146,0c4.215,0 7.646,3.43 7.646,7.649l-0.293,6.563c0,2.192 1.779,3.983 3.979,3.983l33.967,0c2.191,0 3.98,-1.782 3.98,-3.983c0,-2.204 1.781,-3.981 3.986,-3.981l5.348,0c1.949,0 3.537,-1.584 3.537,-3.536l0,-7.975c0,-6.975 -5.656,-12.629 -12.629,-12.629l-0.234,0c-6.979,0 -12.629,-5.648 -12.629,-12.629l0,-0.434c0,-6.978 -5.648,-12.631 -12.629,-12.631l-0.234,0c-6.975,0 -12.631,-5.652 -12.631,-12.626l0,-0.438c0,-6.975 -5.652,-12.629 -12.621,-12.629l-0.131,0.169z" stroke-miterlimit="10" stroke-linejoin="round" stroke-linecap="round" stroke-width="2.8098" stroke="#48D4BB" fill="#5dc47a" id="新竹縣"/>
  <path d="m243.994,221.244l22.588,0c3.383,0 6.129,2.748 6.129,6.129l0,0.521c0,6.445 5.229,11.676 11.672,11.676l44.576,0c10.111,0 18.313,-8.199 18.313,-18.313l0,-0.446c0,-5.348 -4.336,-9.688 -9.688,-9.688l-1.953,-0.039c-2.193,0 -3.982,-1.782 -3.982,-3.983l0.293,-6.563c0,-4.221 -3.428,-7.651 -7.646,-7.651l-0.143,0c-4.221,0 -7.646,-3.428 -7.646,-7.651l0,-0.258c0,-4.218 -3.428,-7.648 -7.65,-7.648l-0.139,0c-4.221,0 -7.648,-3.43 -7.648,-7.651l0,-0.262l0.021,-2.493l-0.021,0c0,15.468 -12.541,28.022 -28.02,28.022l-1.082,0c-14.777,0 -26.877,11.432 -27.951,25.928l-0.023,0.37z" stroke-miterlimit="10" stroke-linejoin="round" stroke-linecap="round" stroke-width="2.8098" stroke="#48D4BB" fill="#5dc47a" id="苗栗縣"/>
  <path d="m233.568,573.624c2.691,1.304 5.722,2.031 8.91,2.031l10.729,0c11.33,0 20.531,9.199 20.531,20.534l0,39.129c0,11.509 9.416,21.29 20.926,21.065c11.16,-0.208 20.143,-9.318 20.143,-20.536l0,-38.583l-12.143,0c-10.809,0 -19.563,-8.76 -19.563,-19.562l0,-44.258c0,-4.068 3.295,-7.368 7.363,-7.368l0.283,-0.048c4.066,0 7.365,-3.3 7.365,-7.368c0,-4.072 3.297,-7.365 7.365,-7.365l0.574,0c2.975,0 5.389,-2.412 5.389,-5.388c0,-2.986 -2.406,-5.391 -5.389,-5.391l-0.574,0c-4.068,0 -7.365,-3.302 -7.365,-7.369c0,-5.29 -5.188,-4.578 -5.188,-4.578l-39.566,0.211c-3.783,0 -6.863,3.063 -6.863,6.864l0,1.141c0,3.782 -3.07,6.863 -6.872,6.863l-0.729,0c-3.789,0 -6.869,3.073 -6.869,6.87l0,62.313l1.543,0.793z" stroke-miterlimit="10" stroke-linejoin="round" stroke-linecap="round" stroke-width="2.8098" stroke="#48D4BB" fill="#5dc47a" id="屏東縣"/>
  <path d="m231.17,572.337c-5.636,-3.669 -9.343,-10.019 -9.343,-17.218l0,-5.164c0,0 -0.047,-6.529 0,-8.044c0.107,-3.813 -3.08,-6.891 -6.887,-6.891l-6.146,0c-10.421,0 -18.888,-8.452 -18.888,-18.889l0,-35.604l38.636,0c8.146,0 14.753,-6.608 14.753,-14.751l0,-12.695c0,-8.144 6.607,-14.751 14.752,-14.751l0.352,0c1.961,0 3.57,-1.596 3.57,-3.563c0,-1.971 -1.598,-3.573 -3.57,-3.573l-0.717,0c5.447,0 9.861,-4.418 9.861,-9.861l0,-9.606c0,-5.447 4.42,-9.864 9.865,-9.864l2.633,0c9.611,0 17.412,-7.793 17.412,-17.415l0,-4.427c0,5.518 4.467,9.975 9.969,9.975l29.52,-0.118l-0.479,0l-0.25,0c-6.635,0 -12.02,5.379 -12.02,12.017c0,6.645 5.387,12.021 12.02,12.021l0.666,0l-0.779,0l-0.373,0c-6.91,0 -12.52,5.598 -12.52,12.521l-0.074,0.477c0,6.914 -5.598,12.521 -12.521,12.521c-6.922,0 -12.521,5.598 -12.521,12.518l-0.291,29.435l0.188,1.993c0,2.875 -2.336,5.211 -5.211,5.211l-39.563,0.241c-3.791,0 -6.871,3.065 -6.871,6.863l0,1.141c0,3.783 -3.064,6.865 -6.864,6.865l-0.733,0c-3.794,0 -6.871,3.072 -6.871,6.871l0,62.312l-0.705,-0.548z" stroke-miterlimit="10" stroke-linejoin="round" stroke-linecap="round" stroke-width="2.8098" stroke="#48D4BB" fill="#5dc47a" id="高雄市"/>
  <path d="m189.931,480.529l38.592,0c8.147,0 14.754,-6.611 14.754,-14.755l0,-12.692c0,-8.151 6.648,-14.756 14.795,-14.756l0.352,0c1.959,0 3.568,-1.594 3.568,-3.566c0,-1.962 -1.594,-3.57 -3.568,-3.57c-5.443,0 -10.947,-4.416 -10.947,-9.855l0,-12.946c0,-5.442 -4.412,-9.865 -9.862,-9.865l-22.586,0c-5.447,0 -9.86,4.423 -9.86,9.865l0,-0.033c0,5.447 -4.417,9.863 -9.863,9.863l-13.507,0l0,7.136c0,3.81 -3.078,6.887 -6.885,6.887l-1.011,0c-3.811,0 -6.89,3.081 -6.89,6.896l0,0.604l0,4.409c0,8.237 6.682,14.905 14.913,14.905l1.121,0c3.807,0 6.886,3.085 6.886,6.896l-0.002,14.577l0,0z" stroke-miterlimit="10" stroke-linejoin="round" stroke-linecap="round" stroke-width="2.8098" stroke="#48D4BB" fill="#5dc47a" id="臺南市"/>
  <path d="m301.285,169.626c0,4.263 3.461,7.726 7.727,7.726c4.268,0 7.729,-3.463 7.729,-7.726l0,-1.832c0,-2.363 1.92,-4.286 4.283,-4.286l0.281,0.086c2.369,0 4.289,-1.92 4.289,-4.284l0,-1.528c0,-2.365 -1.92,-4.285 -4.289,-4.285l-0.281,0.087c-2.363,0 -4.283,-1.924 -4.283,-4.288l0,-0.468c0,-2.364 -1.926,-4.285 -4.289,-4.285l-6.941,0c-2.363,0 -4.289,1.921 -4.289,4.285l0.021,0l0,18.021l0.042,2.777z" stroke-miterlimit="10" stroke-linejoin="round" stroke-linecap="round" stroke-width="2.8098" stroke="#48D4BB" fill="#5dc47a" id="新竹市"/>
  <path d="m25.102,235.79l6.477,0c8.485,0 15.353,6.879 15.353,15.354l0,0c0,8.482 -6.877,15.352 -15.353,15.352l-6.477,0c-8.485,0 -15.352,-6.878 -15.352,-15.352l0,0c0.003,-8.485 6.881,-15.354 15.352,-15.354z" fill="#5dc47a" id="馬祖"/>
  <path d="m63.734,48.659082l8.039,0c4.849,0 8.774,3.928 8.774,8.775l0,0c0,4.848 -3.926,8.776 -8.774,8.776l-8.039,0c-4.852,0 -8.777,-3.925 -8.777,-8.776l0,0c0,-4.845 3.925,-8.775 8.777,-8.775z" fill="#5dc47a" id="金門縣"/>
  <path d="m78.5,462.618l0,-4.495c0,-5.883 4.762,-10.645 10.64,-10.645l0,0c5.88,0 10.646,4.762 10.646,10.645l0,4.495c0,5.874 -4.762,10.638 -10.646,10.638l0,0c-5.876,-0.001 -10.64,-4.764 -10.64,-10.638z" fill="#5dc47a" id="澎湖縣"/>
  <path d="m399.957,519.852l5.049,0c3.035,0 5.502,2.463 5.502,5.502l0,0c0,3.04 -2.467,5.499 -5.502,5.499l-5.049,0c-3.037,0 -5.494,-2.459 -5.494,-5.499l0,0c0,-3.039 2.461,-5.502 5.494,-5.502z" fill="#5dc47a" id="綠島"/>
  <path d="m430.338,607.193l0,6.808c0,4.105 -3.33,7.431 -7.426,7.431l0,0c-4.105,0 -7.432,-3.327 -7.432,-7.431l0,-6.808c0,-4.104 3.334,-7.431 7.432,-7.431l0,0c4.108,0 7.426,3.328 7.426,7.431z" fill="#5dc47a" id="蘭嶼"/>
 </g>
</svg>